<svg width="40" height="40" viewBox="0 0 32 32" xmlns="http://www.w3.org/2000/svg"><g fill="none" fill-rule="evenodd"><path d="M0 0h32v32H0z"/><path d="M16 17a1 1 0 0 1 1 1v10a1 1 0 0 1-2 0V18a1 1 0 0 1 1-1zm6 0a1 1 0 0 1 1 1c0 3.596 1.737 6.9 4.607 8.953a1 1 0 1 1-1.163 1.627A12.982 12.982 0 0 1 21 18a1 1 0 0 1 1-1zm-12 0a1 1 0 0 1 1 1c0 4.244-2.049 8.145-5.432 10.571a1 1 0 0 1-1.166-1.625A10.983 10.983 0 0 0 9 18a1 1 0 0 1 1-1zM27 2a5 5 0 0 1 5 5v4a5 5 0 0 1-5 5H5a5 5 0 0 1-5-5V7a5 5 0 0 1 5-5zm0 2H5a3 3 0 0 0-3 3v4a3 3 0 0 0 3 3h22a3 3 0 0 0 3-3V7a3 3 0 0 0-3-3zm0 6a1 1 0 0 1 0 2H5a1 1 0 0 1 0-2z" fill="#000" fill-rule="nonzero"/></g></svg>