<svg xmlns="http://www.w3.org/2000/svg" viewBox="0 0 51.017 51.017" style="enable-background:new 0 0 51.017 51.017" xml:space="preserve"><path d="M51 18.258h-7.193c2.114-2.528 2.981-5.099 2.566-7.659-.877-5.404-7.159-8.602-7.426-8.735a1 1 0 0 0-.896 1.788l.092.049-2.078 2.078a6.942 6.942 0 0 0-4.187-1.399c-1.87 0-3.628.728-4.95 2.051a.999.999 0 0 0 0 1.414l8.485 8.485a.997.997 0 0 0 1.414 0 6.955 6.955 0 0 0 2.051-4.95 6.942 6.942 0 0 0-1.399-4.187l2.399-2.399c1.714 1.227 4.077 3.376 4.521 6.132.37 2.296-.675 4.693-3.106 7.125-.061.061-.096.136-.138.207H1a1 1 0 0 0-1 1v30h2v-3h21a1 1 0 0 0 1-1v-25h25v29h2v-29h.017v-2H51zm-14.949-4.12L29.12 7.207a4.966 4.966 0 0 1 2.759-.828c.995 0 1.946.291 2.757.829l-.05.05L36 8.672l.05-.05a4.96 4.96 0 0 1 .829 2.757c0 .996-.289 1.947-.828 2.759zM5 44.258H2v-24h3v24zm17 0H7v-24h15v24z"/><path d="M18 29.258h2v7h-2z"/></svg>