<svg width="40" height="40" viewBox="0 0 50 50" xmlns="http://www.w3.org/2000/svg"><path d="M10 0C8.355 0 7 1.355 7 3v15.688a1.025 1.025 0 0 0 0 .593V44c0 1.645 1.355 3 3 3v1c0 1.094.906 2 2 2h3c1.094 0 2-.906 2-2v-1h16v1c0 1.094.906 2 2 2h3c1.094 0 2-.906 2-2v-1c1.645 0 3-1.355 3-3V19.187a1.016 1.016 0 0 0 0-.406V3c0-1.645-1.355-3-3-3Zm0 2h30c.563 0 1 .438 1 1v15H9V3c0-.563.438-1 1-1Zm3.906 3.969c-.043.008-.086.02-.125.031A1.002 1.002 0 0 0 13 7v7c-.004.36.184.695.496.879.313.18.695.18 1.008 0 .312-.184.5-.52.496-.879V7a1 1 0 0 0-1.094-1.031ZM9 20h32v24c0 .563-.438 1-1 1H10c-.563 0-1-.438-1-1Zm4.906 2.969c-.043.008-.086.02-.125.031A1.002 1.002 0 0 0 13 24v7c-.004.36.184.695.496.879.313.18.695.18 1.008 0 .312-.184.5-.52.496-.879v-7a1 1 0 0 0-1.094-1.031ZM12 47h3v1h-3Zm23 0h3v1h-3Z"/></svg>