<svg width="40" height="40" viewBox="0 0 128 128" xml:space="preserve" xmlns="http://www.w3.org/2000/svg"><path d="M50.738 80.422h-7.29V59.87a7.899 7.899 0 0 0 4.05-6.889V15.896c0-4.354-3.542-7.896-7.896-7.896s-7.896 3.542-7.896 7.896V52.98a7.897 7.897 0 0 0 4.05 6.889v20.552h-7.29c-2.73 0-4.979 2.127-5.119 4.84l-1.595 29.329a5.053 5.053 0 0 0 1.384 3.798 5.157 5.157 0 0 0 3.736 1.609h25.461a5.155 5.155 0 0 0 3.736-1.609 5.05 5.05 0 0 0 1.384-3.795l-1.593-29.33a5.119 5.119 0 0 0-5.122-4.841zM33.705 52.98V15.896c0-3.251 2.646-5.896 5.896-5.896s5.896 2.645 5.896 5.896V52.98c0 3.251-2.646 5.896-5.896 5.896s-5.896-2.645-5.896-5.896zm20.908 64.037a3.104 3.104 0 0 1-2.281.982H26.871a3.106 3.106 0 0 1-2.281-.982 3.076 3.076 0 0 1-.843-2.313l1.596-29.334a3.115 3.115 0 0 1 3.122-2.946h8.29a1 1 0 0 0 1-1V60.649c.594.143 1.21.227 1.847.227s1.253-.084 1.847-.227v20.773a1 1 0 0 0 1 1h8.29a3.12 3.12 0 0 1 3.124 2.949l1.594 29.335a3.08 3.08 0 0 1-.844 2.311z"/><path d="M31.456 85.475a3.052 3.052 0 0 0-3.048 3.049v23.441c0 1.681 1.367 3.049 3.048 3.049s3.049-1.368 3.049-3.049V88.523a3.052 3.052 0 0 0-3.049-3.048zm1.049 26.489c0 .578-.471 1.049-1.049 1.049s-1.048-.471-1.048-1.049V88.523c0-.578.47-1.049 1.048-1.049s1.049.471 1.049 1.049v23.441zm7.203-26.489a3.052 3.052 0 0 0-3.048 3.049v23.441c0 1.681 1.367 3.049 3.048 3.049s3.049-1.368 3.049-3.049V88.523a3.052 3.052 0 0 0-3.049-3.048zm1.049 26.489c0 .578-.471 1.049-1.049 1.049s-1.048-.471-1.048-1.049V88.523c0-.578.47-1.049 1.048-1.049s1.049.471 1.049 1.049v23.441zm7.203-26.489a3.052 3.052 0 0 0-3.048 3.049v23.441c0 1.681 1.368 3.049 3.049 3.049s3.048-1.368 3.048-3.049V88.523a3.052 3.052 0 0 0-3.049-3.048zm1.049 26.489a1.05 1.05 0 0 1-1.048 1.049h-.001a1.05 1.05 0 0 1-1.048-1.049V88.523c0-.578.471-1.049 1.049-1.049s1.048.471 1.048 1.049v23.441zm-5.736-94.94c0-2.025-1.647-3.672-3.672-3.672s-3.672 1.647-3.672 3.672 1.647 3.672 3.672 3.672 3.672-1.647 3.672-3.672zm-5.343 0c0-.922.75-1.672 1.672-1.672s1.672.75 1.672 1.672-.75 1.672-1.672 1.672-1.672-.75-1.672-1.672zm55.446 0a3.676 3.676 0 0 0-3.673-3.672c-2.024 0-3.672 1.647-3.672 3.672s1.647 3.672 3.672 3.672a3.676 3.676 0 0 0 3.673-3.672zm-5.345 0c0-.922.75-1.672 1.672-1.672.923 0 1.673.75 1.673 1.672s-.75 1.672-1.673 1.672c-.922 0-1.672-.75-1.672-1.672z"/><path d="M93.55 78.672V59.87a7.899 7.899 0 0 0 4.05-6.889V15.896C97.6 11.542 94.058 8 89.703 8c-4.354 0-7.896 3.542-7.896 7.896V52.98a7.898 7.898 0 0 0 4.049 6.889v18.803C78.45 80.888 73.149 89.29 73.149 99.049c0 11.552 7.426 20.95 16.554 20.95s16.555-9.398 16.555-20.95c0-9.759-5.302-18.161-12.708-20.377zM83.808 52.98V15.896c0-3.251 2.645-5.896 5.896-5.896s5.896 2.645 5.896 5.896V52.98c0 3.251-2.646 5.896-5.896 5.896s-5.896-2.645-5.896-5.896zm5.895 65.019c-8.025 0-14.554-8.501-14.554-18.95 0-9.18 5.021-17.026 11.937-18.658.028-.007.049-.026.076-.035.066-.022.125-.051.185-.085.055-.032.106-.063.154-.104a.99.99 0 0 0 .128-.139c.04-.051.076-.1.106-.157a.932.932 0 0 0 .066-.174.936.936 0 0 0 .04-.199c.002-.028.016-.053.016-.082V60.649c.594.143 1.21.227 1.847.227s1.253-.084 1.847-.227v18.769c0 .029.014.054.017.082a.93.93 0 0 0 .04.197c.018.062.037.12.067.176a1 1 0 0 0 .104.155c.04.051.081.099.13.141.047.04.098.071.152.103.06.034.119.063.185.085.027.009.047.028.076.035 6.917 1.631 11.938 9.478 11.938 18.658-.002 10.448-6.531 18.949-14.557 18.949z"/><path d="M89.703 83.167c-6.941 0-12.588 7.121-12.588 15.873a1 1 0 1 0 2 0c0-7.649 4.75-13.873 10.588-13.873a1 1 0 1 0 0-2z"/></svg>