<svg version="1.1" id="Icons" xmlns="http://www.w3.org/2000/svg" viewBox="0 0 32 32" xml:space="preserve"><style>.st0{fill:none;stroke:#000;stroke-width:2;stroke-linecap:round;stroke-linejoin:round;stroke-miterlimit:10}</style><path class="st0" d="M26 31H6c-1.1 0-2-.9-2-2V3c0-1.1.9-2 2-2h20c1.1 0 2 .9 2 2v26c0 1.1-.9 2-2 2z"/><circle class="st0" cx="10" cy="7" r="2"/><circle class="st0" cx="16" cy="20" r="7"/><path d="M24 8c-.1 0-.3 0-.4-.1-.1-.1-.2-.1-.3-.2-.2-.2-.3-.4-.3-.7 0-.3.1-.5.3-.7.1-.1.2-.2.3-.2.4-.2.8-.1 1.1.2.2.2.3.4.3.7v.2c0 .1 0 .1-.1.2 0 .1-.1.1-.1.2l-.1.1c-.2.2-.4.3-.7.3zm-3 0c-.1 0-.3 0-.4-.1-.1-.1-.2-.1-.3-.2-.2-.2-.3-.4-.3-.7 0-.3.1-.5.3-.7.1-.1.2-.2.3-.2.4-.2.8-.1 1.1.2.2.2.3.4.3.7v.2c0 .1 0 .1-.1.2 0 .1-.1.1-.1.2l-.1.1c-.2.2-.4.3-.7.3zm-3 0c-.1 0-.3 0-.4-.1-.1-.1-.2-.1-.3-.2-.2-.2-.3-.4-.3-.7 0-.3.1-.5.3-.7.1-.1.2-.2.3-.2.4-.2.8-.1 1.1.2.2.2.3.4.3.7v.2c0 .1 0 .1-.1.2 0 .1-.1.1-.1.2l-.1.1c-.2.2-.4.3-.7.3z"/><path class="st0" d="m9.1 19 2.9 1.1c1.3.5 2.8.5 4.1-.2h0c1.3-.6 2.8-.7 4.1-.2l2.8 1.1"/></svg>