<svg xmlns="http://www.w3.org/2000/svg" viewBox="0 0 186.368 186.368" style="enable-background:new 0 0 186.368 186.368" xml:space="preserve">
  <path d="M183.927 119.526c-10.472-3.479-22.337-6.286-35.08-8.436l4.234-11.109 1.174.062a3.554 3.554 0 0 0 1.942-.456l21.612-12.195a3.567 3.567 0 0 0-3.503-6.213l-20.709 11.686-38.817-2.071c-.17-.034-.319-.117-.497-.126-.19-.015-.356.056-.539.071l-19.339-1.032c-1.919-.07-3.646 1.407-3.751 3.371a3.57 3.57 0 0 0 3.371 3.754l16.344.871-.448 9.171c-7.067-.382-14.23-.627-21.506-.627-8.739 0-17.323.309-25.728.854L38.872 58.726H67.75a3.565 3.565 0 0 0 3.566-3.566c0-19.661-15.996-35.658-35.658-35.658S0 35.499 0 55.16a3.565 3.565 0 0 0 3.566 3.566h27.506c.059.215.068.436.17.644l23.765 48.276c-17.885 1.531-34.712 4.3-49.724 8.223a3.567 3.567 0 0 0-2.547 4.353c.496 1.905 2.436 3.03 4.351 2.549 23.498-6.143 51.621-9.392 81.326-9.392 35.075 0 68.196 4.586 93.263 12.916a3.572 3.572 0 0 0 4.51-2.26 3.568 3.568 0 0 0-2.259-4.509zM7.353 51.595c1.762-14.051 13.784-24.961 28.305-24.961s26.543 10.91 28.305 24.961H7.353zm134.295 58.352c-7.924-1.146-16.154-2.027-24.607-2.642l.45-9.222 28.108 1.498-3.951 10.366zm25.945 24.827a3.565 3.565 0 0 0-3.566 3.566c0 11.798-9.597 21.395-21.395 21.395s-21.395-9.597-21.395-21.395a3.565 3.565 0 1 0-7.132 0c0 11.798-9.597 21.395-21.395 21.395s-21.395-9.597-21.395-21.395a3.565 3.565 0 1 0-7.132 0c0 11.798-9.597 21.395-21.395 21.395s-21.395-9.597-21.395-21.395a3.565 3.565 0 1 0-7.132 0c0 15.729 12.797 28.526 28.526 28.526 10.733 0 20.093-5.964 24.961-14.747 4.868 8.783 14.228 14.747 24.961 14.747 10.733 0 20.093-5.964 24.961-14.747 4.868 8.783 14.228 14.747 24.961 14.747 15.729 0 28.526-12.797 28.526-28.526a3.562 3.562 0 0 0-3.564-3.566z"/>
</svg>
