<svg xmlns="http://www.w3.org/2000/svg" viewBox="0 0 512 512" style="enable-background:new 0 0 512 512" xml:space="preserve"><path d="M85.333 460.8h85.333c5.12 0 8.533-3.413 8.533-8.533v-51.2c0-5.12-3.413-8.533-8.533-8.533H85.333c-5.12 0-8.533 3.413-8.533 8.533v51.2c0 5.12 3.413 8.533 8.533 8.533zm8.534-51.2h68.267v34.133H93.867V409.6zm247.466 51.2h85.333c5.12 0 8.533-3.413 8.533-8.533v-51.2c0-5.12-3.413-8.533-8.533-8.533h-85.333c-5.12 0-8.533 3.413-8.533 8.533v51.2c0 5.12 3.413 8.533 8.533 8.533zm8.534-51.2h68.267v34.133h-68.267V409.6zM85.333 256h85.333c5.12 0 8.533-3.413 8.533-8.533v-51.2c0-5.12-3.413-8.533-8.533-8.533H85.333c-5.12 0-8.533 3.413-8.533 8.533v51.2c0 5.12 3.413 8.533 8.533 8.533zm8.534-51.2h68.267v34.133H93.867V204.8zM213.333 256h85.333c5.12 0 8.533-3.413 8.533-8.533v-51.2c0-5.12-3.413-8.533-8.533-8.533h-85.333c-5.12 0-8.533 3.413-8.533 8.533v51.2c0 5.12 3.413 8.533 8.533 8.533zm8.534-51.2h68.267v34.133h-68.267V204.8zM341.333 256h85.333c5.12 0 8.533-3.413 8.533-8.533v-51.2c0-5.12-3.413-8.533-8.533-8.533h-85.333c-5.12 0-8.533 3.413-8.533 8.533v51.2c0 5.12 3.413 8.533 8.533 8.533zm8.534-51.2h68.267v34.133h-68.267V204.8z"/><path d="M477.867 280.32V170.667h25.6c2.56 0 5.12-1.707 6.827-4.267 1.707-1.707 1.707-5.12.853-7.68l-34.133-85.333c-.853-3.413-4.267-5.12-7.68-5.12H460.8v-33.28C460.8 16.213 444.587 0 425.813 0H86.187C67.413 0 51.2 16.213 51.2 34.987v33.28h-8.533c-3.413 0-6.827 1.707-7.68 5.973L.854 159.573c-.853 2.56-.853 5.973.853 7.68s4.267 3.413 6.827 3.413h25.6v110.507l-33.28 83.2c-.853 2.56-.853 5.973.853 7.68s4.267 3.413 6.827 3.413h25.6v128c0 5.12 3.413 8.533 8.533 8.533h426.667c5.12 0 8.533-3.413 8.533-8.533v-128h25.6c2.56 0 5.12-1.707 6.827-4.267 1.707-1.707 1.707-5.12.853-7.68l-33.28-83.199zm-76.8-263.253v17.067h-34.133V17.067h34.133zm-85.334 0v17.067H281.6V17.067h34.133zm-85.333 0v17.067h-34.133V17.067H230.4zm-85.333 0v17.067h-34.133V17.067h34.133zm-76.8 17.92c0-9.387 8.533-17.92 17.92-17.92h7.68v25.6c0 5.12 3.413 8.533 8.533 8.533h51.2c5.12 0 8.533-3.413 8.533-8.533v-25.6H179.2v25.6c0 5.12 3.413 8.533 8.533 8.533h51.2c5.12 0 8.533-3.413 8.533-8.533v-25.6h17.067v25.6c0 5.12 3.413 8.533 8.533 8.533h51.2c5.12 0 8.533-3.413 8.533-8.533v-25.6h17.067v25.6c0 5.12 3.413 8.533 8.533 8.533h51.2c5.12 0 8.533-3.413 8.533-8.533v-25.6h7.68c9.387 0 17.92 8.533 17.92 17.92v33.28H68.267v-33.28zM450.56 85.333c-3.413 10.24-12.8 17.067-23.893 17.067s-20.48-6.827-23.893-17.067h47.786zm-68.267 0c-3.413 10.24-12.8 17.067-23.893 17.067s-20.48-6.827-23.893-17.067h47.786zm-68.266 0c-3.413 10.24-12.8 17.067-23.893 17.067s-20.48-6.827-23.893-17.067h47.786zm-68.267 0c-3.413 10.24-12.8 17.067-23.893 17.067s-20.48-6.827-23.893-17.067h47.786zm-68.267 0c-3.413 10.24-12.8 17.067-23.893 17.067s-20.48-6.827-23.893-17.067h47.786zm-68.266 0c-3.413 10.24-12.8 17.067-23.893 17.067s-20.48-6.827-23.893-17.067h47.786zm-63.558 7.429c6.21 15.781 21.443 26.705 39.665 26.705 13.653 0 26.453-6.827 34.133-17.067 7.68 10.24 20.48 17.067 34.133 17.067 13.653 0 26.453-6.827 34.133-17.067 7.68 10.24 20.48 17.067 34.133 17.067 13.653 0 26.453-6.827 34.133-17.067 7.68 10.24 20.48 17.067 34.133 17.067s26.453-6.827 34.133-17.067c7.68 10.24 20.48 17.067 34.133 17.067s26.453-6.827 34.133-17.067c7.68 10.24 20.48 17.067 34.133 17.067 18.221 0 33.454-10.924 39.665-26.705l24.335 60.838H21.333l24.336-60.838zM460.8 170.667v102.4H51.2v-102.4h409.6zm-10.24 119.466c-3.413 10.24-12.8 17.067-23.893 17.067s-20.48-6.827-23.893-17.067h47.786zm-68.267 0c-3.413 10.24-12.8 17.067-23.893 17.067s-20.48-6.827-23.893-17.067h47.786zm-68.266 0c-3.413 10.24-12.8 17.067-23.893 17.067s-20.48-6.827-23.893-17.067h47.786zm-68.267 0c-3.413 10.24-12.8 17.067-23.893 17.067s-20.48-6.827-23.893-17.067h47.786zm-68.267 0c-3.413 10.24-12.8 17.067-23.893 17.067s-20.48-6.827-23.893-17.067h47.786zm-68.266 0c-3.413 10.24-12.8 17.067-23.893 17.067s-20.48-6.827-23.893-17.067h47.786zm112.64 204.8V409.6h68.267v85.333h-68.267zm238.933 0H307.2v-93.867c0-5.12-3.413-8.533-8.533-8.533h-85.333c-5.12 0-8.533 3.413-8.533 8.533v93.867H51.2V375.467h409.6v119.466zm8.533-136.533h-448l24.335-60.838c6.21 15.781 21.443 26.705 39.665 26.705 13.653 0 26.453-6.827 34.133-17.067 7.68 10.24 20.48 17.067 34.133 17.067 13.653 0 26.453-6.827 34.133-17.067 7.68 10.24 20.48 17.067 34.133 17.067 13.653 0 26.453-6.827 34.133-17.067 7.68 10.24 20.48 17.067 34.133 17.067s26.453-6.827 34.133-17.067c7.68 10.24 20.48 17.067 34.133 17.067s26.453-6.827 34.133-17.067c7.68 10.24 20.48 17.067 34.133 17.067 18.221 0 33.454-10.924 39.665-26.705l24.335 60.838h-21.33z"/></svg>