<svg width="30" height="30" viewBox="0 0 45 45" fill="none" xmlns="http://www.w3.org/2000/svg"><path d="M14.5 8.5a4.5 4.5 0 0 1 4.495 4.288L19 13v4.698l5.405-4.002a1.001 1.001 0 0 1 1.109-.054l.111.077L31 18.02V14.5h2v5.12l2.625 2.099-1.25 1.562L33 22.18l-.001 4.32H35a1 1 0 0 1 .993.883L36 27.5v8a1 1 0 0 1-.883.993L35 36.5H8v-2h7.545l1.75-2H8v-2h11v.052l1.795-2.052H8v-2h2V13a4.5 4.5 0 0 1 4.5-4.5Zm12.295 20h-3.342l-5.25 6h3.342l5.25-6ZM34 30.16l-3.797 4.34H34v-4.34Zm-1.205-1.66h-3.342l-5.25 6h3.342l5.25-6ZM31 20.58l-6.024-4.819L19 20.187V26.5h2.999l.001-4a1 1 0 0 1 .883-.993L23 21.5h4a1 1 0 0 1 .993.883L28 22.5l-.001 4h3L31 20.58ZM14.5 10.5a2.501 2.501 0 0 0-2.495 2.336L12 13v13.5h5V13a2.5 2.5 0 0 0-2.5-2.5Zm11.5 13h-2v3h2v-3Z" fill="#000"/></svg>