<svg width="30" height="30" viewBox="-1 0 43.998 43.998" xmlns="http://www.w3.org/2000/svg"><path data-name="01.Home" d="M41.715 21.711a.975.975 0 0 1-1.381 0L31.4 12.773a1.019 1.019 0 0 1-.17-.171L27.4 8.773a1.019 1.019 0 0 1-.17-.171L21 2.377 1.667 21.711A.977.977 0 0 1 .286 20.33L20.191.43a.935.935 0 0 1 .094-.144 1.05 1.05 0 0 1 1.43 0 .925.925 0 0 1 .1.144L27 5.616V3a1 1 0 0 1 1-1h4a1 1 0 0 1 1 1v8.619l8.715 8.714a.977.977 0 0 1 0 1.378ZM31 4h-2v3.616l2 2ZM7 20a1 1 0 0 1 1 1v19a2 2 0 0 0 2 2h6V29a1 1 0 0 1 1-1h8a1 1 0 0 1 1 1v13h6a2 2 0 0 0 2-2V21a1 1 0 0 1 2 0v19a4 4 0 0 1-4 4H10a4 4 0 0 1-4-4V21a1 1 0 0 1 1-1Zm17 22V30h-6v12h6Z" fill-rule="evenodd"/></svg>