<svg width="30" height="30" viewBox="0 0 45 45" fill="none" xmlns="http://www.w3.org/2000/svg"><path d="M23.125 20.375h6m-19-4h24m-5 7v-10a3 3 0 1 0-6 0m0 10v-10a3 3 0 1 0-6 0" stroke="#000" stroke-width="2"/><mask id="a" style="mask-type:alpha" maskUnits="userSpaceOnUse" x="2" y="18" width="41" height="21"><path d="M42.018 18.25v20.148H2V18.25h40.018Z" fill="#000"/></mask><g mask="url(#a)" stroke="#000" stroke-width="2"><path d="M10.136 34.852c-.724 0-1.448-.25-2-.75a2.976 2.976 0 0 0-2-.75c-.724 0-1.448.25-2 .75s-1.276.75-2 .75-1.448-.25-2-.75a2.976 2.976 0 0 0-2-.75c-.724 0-1.448.25-2 .75s-1.276.75-2 .75-1.448-.25-2-.75a2.976 2.976 0 0 0-2-.75c-.724 0-1.448.25-2 .75s-1.276.75-2 .75m71.988.014c-.724 0-1.448-.25-2-.75a2.976 2.976 0 0 0-2-.75c-.724 0-1.448.25-2 .75s-1.276.75-2 .75-1.448-.25-2-.75a2.976 2.976 0 0 0-2-.75c-.724 0-1.448.25-2 .75s-1.276.75-2 .75-1.448-.25-2-.75a2.976 2.976 0 0 0-2-.75c-.724 0-1.448.25-2 .75s-1.276.75-2 .75m.001.009c-.724 0-1.448-.25-2-.75a2.976 2.976 0 0 0-2-.75c-.724 0-1.448.25-2 .75s-1.276.75-2 .75-1.448-.25-2-.75a2.976 2.976 0 0 0-2-.75c-.724 0-1.448.25-2 .75s-1.276.75-2 .75-1.448-.25-2-.75a2.976 2.976 0 0 0-2-.75c-.724 0-1.448.25-2 .75s-1.276.75-2 .75m.011-5.023c-.724 0-1.448-.25-2-.75a2.976 2.976 0 0 0-2-.75c-.724 0-1.448.25-2 .75s-1.276.75-2 .75-1.448-.25-2-.75a2.976 2.976 0 0 0-2-.75c-.724 0-1.448.25-2 .75s-1.276.75-2 .75-1.448-.25-2-.75a2.976 2.976 0 0 0-2-.75c-.724 0-1.448.25-2 .75s-1.276.75-2 .75m71.988.014c-.724 0-1.448-.25-2-.75a2.976 2.976 0 0 0-2-.75c-.724 0-1.448.25-2 .75s-1.276.75-2 .75-1.448-.25-2-.75a2.976 2.976 0 0 0-2-.75c-.724 0-1.448.25-2 .75s-1.276.75-2 .75-1.448-.25-2-.75a2.976 2.976 0 0 0-2-.75c-.724 0-1.448.25-2 .75s-1.276.75-2 .75m.001.009c-.724 0-1.448-.25-2-.75a2.976 2.976 0 0 0-2-.75c-.724 0-1.448.25-2 .75s-1.276.75-2 .75-1.448-.25-2-.75a2.976 2.976 0 0 0-2-.75c-.724 0-1.448.25-2 .75s-1.276.75-2 .75-1.448-.25-2-.75a2.976 2.976 0 0 0-2-.75c-.724 0-1.448.25-2 .75s-1.276.75-2 .75m.011-5.023c-.724 0-1.448-.25-2-.75a2.976 2.976 0 0 0-2-.75c-.724 0-1.448.25-2 .75s-1.276.75-2 .75-1.448-.25-2-.75a2.976 2.976 0 0 0-2-.75c-.724 0-1.448.25-2 .75s-1.276.75-2 .75-1.448-.25-2-.75a2.976 2.976 0 0 0-2-.75c-.724 0-1.448.25-2 .75s-1.276.75-2 .75m71.988.014c-.724 0-1.448-.25-2-.75a2.976 2.976 0 0 0-2-.75c-.724 0-1.448.25-2 .75s-1.276.75-2 .75-1.448-.25-2-.75a2.976 2.976 0 0 0-2-.75c-.724 0-1.448.25-2 .75s-1.276.75-2 .75-1.448-.25-2-.75a2.976 2.976 0 0 0-2-.75c-.724 0-1.448.25-2 .75s-1.276.75-2 .75m.001.009c-.724 0-1.448-.25-2-.75a2.976 2.976 0 0 0-2-.75c-.724 0-1.448.25-2 .75s-1.276.75-2 .75-1.448-.25-2-.75a2.976 2.976 0 0 0-2-.75c-.724 0-1.448.25-2 .75s-1.276.75-2 .75-1.448-.25-2-.75a2.976 2.976 0 0 0-2-.75c-.724 0-1.448.25-2 .75s-1.276.75-2 .75"/></g></svg>