<svg xmlns="http://www.w3.org/2000/svg" viewBox="0 0 484 484" style="enable-background:new 0 0 484 484" xml:space="preserve"><path d="M478 151.859H335.48v-5h11.486a6 6 0 0 0 3.233-11.055l-104.31-66.718a6 6 0 0 0-6.467 0l-104.311 66.718a6 6 0 0 0 3.233 11.055h11.496v5H6a6 6 0 0 0-6 6v252a6 6 0 0 0 6 6h472a6 6 0 0 0 6-6v-252a6 6 0 0 0-6-6zm-134 252H140v-10h204v10zm-32.5-55h-12v-172h12v172zm-47 33v-27a5.997 5.997 0 0 0-4.5-5.803v-25.197h27.5v25.197a5.998 5.998 0 0 0-4.5 5.803v27h-18.5zm-68-180H224v25h-27.5v-25zm0 37H224v16h-27.5v-16zm0 28H224v4h-27.5v-4zm0 16H224v29h-27.5v-29zm0 66.197v-25.197H224v25.197a5.998 5.998 0 0 0-4.5 5.803v27H201v-27a5.998 5.998 0 0 0-4.5-5.803zm35 11.803h21v21h-21v-21zm28.5-159h27.5v25H260v-25zm0 37h27.5v16H260v-16zm0 28h27.5v4H260v-4zm0 16h27.5v29H260v-29zm27.5-93H260v-13h27.5v13zm-39.5 159h-12v-172h12v172zm-24-159h-27.5v-13H224v13zm-39.5 159h-12v-172h12v172zm-24 .197a5.998 5.998 0 0 0-4.5 5.803v6H12v-169h148.5v157.197zm7.5 11.803h21v21h-21v-21zm127 21v-21h21v21h-21zm28.5-32.803V191.859H472v169H328v-6a5.998 5.998 0 0 0-4.5-5.803zM472 163.859v16H323.5v-3h5.98a6 6 0 0 0 6-6v-7H472zM242.655 81.264l83.795 53.596H158.86l83.795-53.596zm80.825 65.595v18H161.84v-18h161.64zm-173.64 17v7a6 6 0 0 0 6 6h4.66v3H12v-16h137.84zM12 372.859h144v9h-22a6 6 0 0 0-6 6v16H12v-31zm344 31v-16a6 6 0 0 0-6-6h-22v-9h144v31H356z"/><path d="M44.155 258.859h33a6 6 0 0 0 6-6v-48a6 6 0 0 0-6-6h-33a6 6 0 0 0-6 6v48a6 6 0 0 0 6 6zm6-12v-20h21v20h-21zm21-36v4h-21v-4h21zm33 48h33a6 6 0 0 0 6-6v-48a6 6 0 0 0-6-6h-33a6 6 0 0 0-6 6v48a6 6 0 0 0 6 6zm6-12v-20h21v20h-21zm21-36v4h-21v-4h21zm-87 139h33a6 6 0 0 0 6-6v-48a6 6 0 0 0-6-6h-33a6 6 0 0 0-6 6v48a6 6 0 0 0 6 6zm6-12v-20h21v20h-21zm21-36v4h-21v-4h21zm33 48h33a6 6 0 0 0 6-6v-48a6 6 0 0 0-6-6h-33a6 6 0 0 0-6 6v48a6 6 0 0 0 6 6zm6-12v-20h21v20h-21zm21-36v4h-21v-4h21zm217-43h33a6 6 0 0 0 6-6v-48a6 6 0 0 0-6-6h-33a6 6 0 0 0-6 6v48a6 6 0 0 0 6 6zm6-12v-20h21v20h-21zm21-36v4h-21v-4h21zm33 48h33a6 6 0 0 0 6-6v-48a6 6 0 0 0-6-6h-33a6 6 0 0 0-6 6v48a6 6 0 0 0 6 6zm6-12v-20h21v20h-21zm21-36v4h-21v-4h21zm-87 139h33a6 6 0 0 0 6-6v-48a6 6 0 0 0-6-6h-33a6 6 0 0 0-6 6v48a6 6 0 0 0 6 6zm6-12v-20h21v20h-21zm21-36v4h-21v-4h21zm33 48h33a6 6 0 0 0 6-6v-48a6 6 0 0 0-6-6h-33a6 6 0 0 0-6 6v48a6 6 0 0 0 6 6zm6-12v-20h21v20h-21zm21-36v4h-21v-4h21z"/></svg>